Duration: 01:48:25.08, start: 0.000000, bitrate: 909 kb/s
Stream #0.0: Video: mpeg4, yuv420p, 608x256 [PAR 1:1 DAR 19:8], 23.98 tb(r)
Stream #0.1: Audio: mp3, 48000 Hz, stereo, s16, 112 kb/s